G04 #@! TF.GenerationSoftware,KiCad,Pcbnew,(5.1.4)-1*
G04 #@! TF.CreationDate,2020-03-02T19:19:25-06:00*
G04 #@! TF.ProjectId,SOT-23-3_Breakout,534f542d-3233-42d3-935f-427265616b6f,rev?*
G04 #@! TF.SameCoordinates,Original*
G04 #@! TF.FileFunction,Soldermask,Top*
G04 #@! TF.FilePolarity,Negative*
%FSLAX46Y46*%
G04 Gerber Fmt 4.6, Leading zero omitted, Abs format (unit mm)*
G04 Created by KiCad (PCBNEW (5.1.4)-1) date 2020-03-02 19:19:25*
%MOMM*%
%LPD*%
G04 APERTURE LIST*
%ADD10C,0.100000*%
G04 APERTURE END LIST*
D10*
G36*
X112483000Y-104779000D02*
G01*
X110481000Y-104779000D01*
X110481000Y-103877000D01*
X112483000Y-103877000D01*
X112483000Y-104779000D01*
X112483000Y-104779000D01*
G37*
G36*
X109483000Y-103829000D02*
G01*
X107481000Y-103829000D01*
X107481000Y-102927000D01*
X109483000Y-102927000D01*
X109483000Y-103829000D01*
X109483000Y-103829000D01*
G37*
G36*
X112483000Y-102879000D02*
G01*
X110481000Y-102879000D01*
X110481000Y-101977000D01*
X112483000Y-101977000D01*
X112483000Y-102879000D01*
X112483000Y-102879000D01*
G37*
G36*
X113013142Y-98659242D02*
G01*
X113161101Y-98720529D01*
X113294255Y-98809499D01*
X113407501Y-98922745D01*
X113496471Y-99055899D01*
X113557758Y-99203858D01*
X113589000Y-99360925D01*
X113589000Y-99521075D01*
X113557758Y-99678142D01*
X113496471Y-99826101D01*
X113407501Y-99959255D01*
X113294255Y-100072501D01*
X113161101Y-100161471D01*
X113013142Y-100222758D01*
X112856075Y-100254000D01*
X112695925Y-100254000D01*
X112538858Y-100222758D01*
X112390899Y-100161471D01*
X112257745Y-100072501D01*
X112144499Y-99959255D01*
X112055529Y-99826101D01*
X111994242Y-99678142D01*
X111963000Y-99521075D01*
X111963000Y-99360925D01*
X111994242Y-99203858D01*
X112055529Y-99055899D01*
X112144499Y-98922745D01*
X112257745Y-98809499D01*
X112390899Y-98720529D01*
X112538858Y-98659242D01*
X112695925Y-98628000D01*
X112856075Y-98628000D01*
X113013142Y-98659242D01*
X113013142Y-98659242D01*
G37*
G36*
X110473142Y-98659242D02*
G01*
X110621101Y-98720529D01*
X110754255Y-98809499D01*
X110867501Y-98922745D01*
X110956471Y-99055899D01*
X111017758Y-99203858D01*
X111049000Y-99360925D01*
X111049000Y-99521075D01*
X111017758Y-99678142D01*
X110956471Y-99826101D01*
X110867501Y-99959255D01*
X110754255Y-100072501D01*
X110621101Y-100161471D01*
X110473142Y-100222758D01*
X110316075Y-100254000D01*
X110155925Y-100254000D01*
X109998858Y-100222758D01*
X109850899Y-100161471D01*
X109717745Y-100072501D01*
X109604499Y-99959255D01*
X109515529Y-99826101D01*
X109454242Y-99678142D01*
X109423000Y-99521075D01*
X109423000Y-99360925D01*
X109454242Y-99203858D01*
X109515529Y-99055899D01*
X109604499Y-98922745D01*
X109717745Y-98809499D01*
X109850899Y-98720529D01*
X109998858Y-98659242D01*
X110155925Y-98628000D01*
X110316075Y-98628000D01*
X110473142Y-98659242D01*
X110473142Y-98659242D01*
G37*
G36*
X107933142Y-98659242D02*
G01*
X108081101Y-98720529D01*
X108214255Y-98809499D01*
X108327501Y-98922745D01*
X108416471Y-99055899D01*
X108477758Y-99203858D01*
X108509000Y-99360925D01*
X108509000Y-99521075D01*
X108477758Y-99678142D01*
X108416471Y-99826101D01*
X108327501Y-99959255D01*
X108214255Y-100072501D01*
X108081101Y-100161471D01*
X107933142Y-100222758D01*
X107776075Y-100254000D01*
X107615925Y-100254000D01*
X107458858Y-100222758D01*
X107310899Y-100161471D01*
X107177745Y-100072501D01*
X107064499Y-99959255D01*
X106975529Y-99826101D01*
X106914242Y-99678142D01*
X106883000Y-99521075D01*
X106883000Y-99360925D01*
X106914242Y-99203858D01*
X106975529Y-99055899D01*
X107064499Y-98922745D01*
X107177745Y-98809499D01*
X107310899Y-98720529D01*
X107458858Y-98659242D01*
X107615925Y-98628000D01*
X107776075Y-98628000D01*
X107933142Y-98659242D01*
X107933142Y-98659242D01*
G37*
M02*
