G04 #@! TF.GenerationSoftware,KiCad,Pcbnew,(5.1.4)-1*
G04 #@! TF.CreationDate,2020-03-02T19:19:25-06:00*
G04 #@! TF.ProjectId,SOT-23-3_Breakout,534f542d-3233-42d3-935f-427265616b6f,rev?*
G04 #@! TF.SameCoordinates,Original*
G04 #@! TF.FileFunction,Legend,Bot*
G04 #@! TF.FilePolarity,Positive*
%FSLAX46Y46*%
G04 Gerber Fmt 4.6, Leading zero omitted, Abs format (unit mm)*
G04 Created by KiCad (PCBNEW (5.1.4)-1) date 2020-03-02 19:19:25*
%MOMM*%
%LPD*%
G04 APERTURE LIST*
%ADD10C,0.150000*%
G04 APERTURE END LIST*
D10*
X115434714Y-103382607D02*
X115310000Y-103424178D01*
X115102142Y-103424178D01*
X115019000Y-103382607D01*
X114977428Y-103341035D01*
X114935857Y-103257892D01*
X114935857Y-103174750D01*
X114977428Y-103091607D01*
X115019000Y-103050035D01*
X115102142Y-103008464D01*
X115268428Y-102966892D01*
X115351571Y-102925321D01*
X115393142Y-102883750D01*
X115434714Y-102800607D01*
X115434714Y-102717464D01*
X115393142Y-102634321D01*
X115351571Y-102592750D01*
X115268428Y-102551178D01*
X115060571Y-102551178D01*
X114935857Y-102592750D01*
X114395428Y-102551178D02*
X114229142Y-102551178D01*
X114146000Y-102592750D01*
X114062857Y-102675892D01*
X114021285Y-102842178D01*
X114021285Y-103133178D01*
X114062857Y-103299464D01*
X114146000Y-103382607D01*
X114229142Y-103424178D01*
X114395428Y-103424178D01*
X114478571Y-103382607D01*
X114561714Y-103299464D01*
X114603285Y-103133178D01*
X114603285Y-102842178D01*
X114561714Y-102675892D01*
X114478571Y-102592750D01*
X114395428Y-102551178D01*
X113771857Y-102551178D02*
X113273000Y-102551178D01*
X113522428Y-103424178D02*
X113522428Y-102551178D01*
X113023571Y-102634321D02*
X112982000Y-102592750D01*
X112898857Y-102551178D01*
X112691000Y-102551178D01*
X112607857Y-102592750D01*
X112566285Y-102634321D01*
X112524714Y-102717464D01*
X112524714Y-102800607D01*
X112566285Y-102925321D01*
X113065142Y-103424178D01*
X112524714Y-103424178D01*
X112233714Y-102551178D02*
X111693285Y-102551178D01*
X111984285Y-102883750D01*
X111859571Y-102883750D01*
X111776428Y-102925321D01*
X111734857Y-102966892D01*
X111693285Y-103050035D01*
X111693285Y-103257892D01*
X111734857Y-103341035D01*
X111776428Y-103382607D01*
X111859571Y-103424178D01*
X112109000Y-103424178D01*
X112192142Y-103382607D01*
X112233714Y-103341035D01*
X110363000Y-102966892D02*
X110238285Y-103008464D01*
X110196714Y-103050035D01*
X110155142Y-103133178D01*
X110155142Y-103257892D01*
X110196714Y-103341035D01*
X110238285Y-103382607D01*
X110321428Y-103424178D01*
X110654000Y-103424178D01*
X110654000Y-102551178D01*
X110363000Y-102551178D01*
X110279857Y-102592750D01*
X110238285Y-102634321D01*
X110196714Y-102717464D01*
X110196714Y-102800607D01*
X110238285Y-102883750D01*
X110279857Y-102925321D01*
X110363000Y-102966892D01*
X110654000Y-102966892D01*
X109781000Y-103424178D02*
X109781000Y-102842178D01*
X109781000Y-103008464D02*
X109739428Y-102925321D01*
X109697857Y-102883750D01*
X109614714Y-102842178D01*
X109531571Y-102842178D01*
X108908000Y-103382607D02*
X108991142Y-103424178D01*
X109157428Y-103424178D01*
X109240571Y-103382607D01*
X109282142Y-103299464D01*
X109282142Y-102966892D01*
X109240571Y-102883750D01*
X109157428Y-102842178D01*
X108991142Y-102842178D01*
X108908000Y-102883750D01*
X108866428Y-102966892D01*
X108866428Y-103050035D01*
X109282142Y-103133178D01*
X108118142Y-103424178D02*
X108118142Y-102966892D01*
X108159714Y-102883750D01*
X108242857Y-102842178D01*
X108409142Y-102842178D01*
X108492285Y-102883750D01*
X108118142Y-103382607D02*
X108201285Y-103424178D01*
X108409142Y-103424178D01*
X108492285Y-103382607D01*
X108533857Y-103299464D01*
X108533857Y-103216321D01*
X108492285Y-103133178D01*
X108409142Y-103091607D01*
X108201285Y-103091607D01*
X108118142Y-103050035D01*
X107702428Y-103424178D02*
X107702428Y-102551178D01*
X107619285Y-103091607D02*
X107369857Y-103424178D01*
X107369857Y-102842178D02*
X107702428Y-103174750D01*
X106871000Y-103424178D02*
X106954142Y-103382607D01*
X106995714Y-103341035D01*
X107037285Y-103257892D01*
X107037285Y-103008464D01*
X106995714Y-102925321D01*
X106954142Y-102883750D01*
X106871000Y-102842178D01*
X106746285Y-102842178D01*
X106663142Y-102883750D01*
X106621571Y-102925321D01*
X106580000Y-103008464D01*
X106580000Y-103257892D01*
X106621571Y-103341035D01*
X106663142Y-103382607D01*
X106746285Y-103424178D01*
X106871000Y-103424178D01*
X105831714Y-102842178D02*
X105831714Y-103424178D01*
X106205857Y-102842178D02*
X106205857Y-103299464D01*
X106164285Y-103382607D01*
X106081142Y-103424178D01*
X105956428Y-103424178D01*
X105873285Y-103382607D01*
X105831714Y-103341035D01*
X105540714Y-102842178D02*
X105208142Y-102842178D01*
X105416000Y-102551178D02*
X105416000Y-103299464D01*
X105374428Y-103382607D01*
X105291285Y-103424178D01*
X105208142Y-103424178D01*
X114956642Y-104634250D02*
X114540928Y-104634250D01*
X115039785Y-104883678D02*
X114748785Y-104010678D01*
X114457785Y-104883678D01*
X114042071Y-104883678D02*
X114125214Y-104842107D01*
X114166785Y-104758964D01*
X114166785Y-104010678D01*
X113709500Y-104883678D02*
X113709500Y-104301678D01*
X113709500Y-104010678D02*
X113751071Y-104052250D01*
X113709500Y-104093821D01*
X113667928Y-104052250D01*
X113709500Y-104010678D01*
X113709500Y-104093821D01*
X113335357Y-104842107D02*
X113252214Y-104883678D01*
X113085928Y-104883678D01*
X113002785Y-104842107D01*
X112961214Y-104758964D01*
X112961214Y-104717392D01*
X113002785Y-104634250D01*
X113085928Y-104592678D01*
X113210642Y-104592678D01*
X113293785Y-104551107D01*
X113335357Y-104467964D01*
X113335357Y-104426392D01*
X113293785Y-104343250D01*
X113210642Y-104301678D01*
X113085928Y-104301678D01*
X113002785Y-104343250D01*
X112212928Y-104883678D02*
X112212928Y-104426392D01*
X112254500Y-104343250D01*
X112337642Y-104301678D01*
X112503928Y-104301678D01*
X112587071Y-104343250D01*
X112212928Y-104842107D02*
X112296071Y-104883678D01*
X112503928Y-104883678D01*
X112587071Y-104842107D01*
X112628642Y-104758964D01*
X112628642Y-104675821D01*
X112587071Y-104592678D01*
X112503928Y-104551107D01*
X112296071Y-104551107D01*
X112212928Y-104509535D01*
X110716357Y-104883678D02*
X111132071Y-104883678D01*
X111132071Y-104010678D01*
X110051214Y-104883678D02*
X110051214Y-104426392D01*
X110092785Y-104343250D01*
X110175928Y-104301678D01*
X110342214Y-104301678D01*
X110425357Y-104343250D01*
X110051214Y-104842107D02*
X110134357Y-104883678D01*
X110342214Y-104883678D01*
X110425357Y-104842107D01*
X110466928Y-104758964D01*
X110466928Y-104675821D01*
X110425357Y-104592678D01*
X110342214Y-104551107D01*
X110134357Y-104551107D01*
X110051214Y-104509535D01*
X109718642Y-104301678D02*
X109261357Y-104301678D01*
X109718642Y-104883678D01*
X109261357Y-104883678D01*
X108554642Y-104883678D02*
X108554642Y-104426392D01*
X108596214Y-104343250D01*
X108679357Y-104301678D01*
X108845642Y-104301678D01*
X108928785Y-104343250D01*
X108554642Y-104842107D02*
X108637785Y-104883678D01*
X108845642Y-104883678D01*
X108928785Y-104842107D01*
X108970357Y-104758964D01*
X108970357Y-104675821D01*
X108928785Y-104592678D01*
X108845642Y-104551107D01*
X108637785Y-104551107D01*
X108554642Y-104509535D01*
X108138928Y-104883678D02*
X108138928Y-104301678D01*
X108138928Y-104467964D02*
X108097357Y-104384821D01*
X108055785Y-104343250D01*
X107972642Y-104301678D01*
X107889500Y-104301678D01*
X107265928Y-104842107D02*
X107349071Y-104883678D01*
X107515357Y-104883678D01*
X107598500Y-104842107D01*
X107640071Y-104758964D01*
X107640071Y-104426392D01*
X107598500Y-104343250D01*
X107515357Y-104301678D01*
X107349071Y-104301678D01*
X107265928Y-104343250D01*
X107224357Y-104426392D01*
X107224357Y-104509535D01*
X107640071Y-104592678D01*
X106933357Y-104301678D02*
X106725500Y-104883678D01*
X106517642Y-104301678D01*
X105810928Y-104883678D02*
X105810928Y-104426392D01*
X105852500Y-104343250D01*
X105935642Y-104301678D01*
X106101928Y-104301678D01*
X106185071Y-104343250D01*
X105810928Y-104842107D02*
X105894071Y-104883678D01*
X106101928Y-104883678D01*
X106185071Y-104842107D01*
X106226642Y-104758964D01*
X106226642Y-104675821D01*
X106185071Y-104592678D01*
X106101928Y-104551107D01*
X105894071Y-104551107D01*
X105810928Y-104509535D01*
X105156000Y-101981000D02*
X105156000Y-96901000D01*
X115316000Y-101981000D02*
X115316000Y-96901000D01*
X105156000Y-96901000D02*
X115316000Y-96901000D01*
X115316000Y-101981000D02*
X105156000Y-101981000D01*
X115316000Y-95377000D02*
X115316000Y-96901000D01*
X105156000Y-96901000D02*
X105156000Y-95377000D01*
X105156000Y-95377000D02*
X115316000Y-95377000D01*
M02*
