G04 #@! TF.GenerationSoftware,KiCad,Pcbnew,(5.1.4)-1*
G04 #@! TF.CreationDate,2020-03-02T19:19:24-06:00*
G04 #@! TF.ProjectId,SOT-23-3_Breakout,534f542d-3233-42d3-935f-427265616b6f,rev?*
G04 #@! TF.SameCoordinates,Original*
G04 #@! TF.FileFunction,Legend,Top*
G04 #@! TF.FilePolarity,Positive*
%FSLAX46Y46*%
G04 Gerber Fmt 4.6, Leading zero omitted, Abs format (unit mm)*
G04 Created by KiCad (PCBNEW (5.1.4)-1) date 2020-03-02 19:19:24*
%MOMM*%
%LPD*%
G04 APERTURE LIST*
%ADD10C,0.150000*%
%ADD11C,0.120000*%
G04 APERTURE END LIST*
D10*
X109855047Y-97861428D02*
X110616952Y-97861428D01*
X107315047Y-97734428D02*
X108076952Y-97734428D01*
X107696000Y-98115380D02*
X107696000Y-97353476D01*
X112490285Y-98194761D02*
X112633142Y-98242380D01*
X112871238Y-98242380D01*
X112966476Y-98194761D01*
X113014095Y-98147142D01*
X113061714Y-98051904D01*
X113061714Y-97956666D01*
X113014095Y-97861428D01*
X112966476Y-97813809D01*
X112871238Y-97766190D01*
X112680761Y-97718571D01*
X112585523Y-97670952D01*
X112537904Y-97623333D01*
X112490285Y-97528095D01*
X112490285Y-97432857D01*
X112537904Y-97337619D01*
X112585523Y-97290000D01*
X112680761Y-97242380D01*
X112918857Y-97242380D01*
X113061714Y-97290000D01*
X105918047Y-103449428D02*
X106679952Y-103449428D01*
X113379285Y-102766761D02*
X113522142Y-102814380D01*
X113760238Y-102814380D01*
X113855476Y-102766761D01*
X113903095Y-102719142D01*
X113950714Y-102623904D01*
X113950714Y-102528666D01*
X113903095Y-102433428D01*
X113855476Y-102385809D01*
X113760238Y-102338190D01*
X113569761Y-102290571D01*
X113474523Y-102242952D01*
X113426904Y-102195333D01*
X113379285Y-102100095D01*
X113379285Y-102004857D01*
X113426904Y-101909619D01*
X113474523Y-101862000D01*
X113569761Y-101814380D01*
X113807857Y-101814380D01*
X113950714Y-101862000D01*
X113284047Y-104465428D02*
X114045952Y-104465428D01*
X113665000Y-104846380D02*
X113665000Y-104084476D01*
D11*
X109222000Y-101798000D02*
X110682000Y-101798000D01*
X109222000Y-104958000D02*
X112382000Y-104958000D01*
X109222000Y-104958000D02*
X109222000Y-104028000D01*
X109222000Y-101798000D02*
X109222000Y-102728000D01*
M02*
